<?xml version="1.0" encoding="UTF-8" standalone="no"?>
<!-- Created with Inkscape (http://www.inkscape.org/) -->

<svg
   xmlns:dc="http://purl.org/dc/elements/1.1/"
   xmlns:cc="http://creativecommons.org/ns#"
   xmlns:rdf="http://www.w3.org/1999/02/22-rdf-syntax-ns#"
   xmlns:svg="http://www.w3.org/2000/svg"
   xmlns="http://www.w3.org/2000/svg"
   xmlns:sodipodi="http://sodipodi.sourceforge.net/DTD/sodipodi-0.dtd"
   xmlns:inkscape="http://www.inkscape.org/namespaces/inkscape"
   version="1.1"
   id="svg4205"
   width="2178.6667"
   height="478.66666"
   viewBox="0 0 2178.6667 478.66666"
   sodipodi:docname="logo_white.svg"
   inkscape:version="0.92.2 (unknown)">
  <metadata
     id="metadata4211">
    <rdf:RDF>
      <cc:Work
         rdf:about="">
        <dc:format>image/svg+xml</dc:format>
        <dc:type
           rdf:resource="http://purl.org/dc/dcmitype/StillImage" />
        <dc:title></dc:title>
      </cc:Work>
    </rdf:RDF>
  </metadata>
  <defs
     id="defs4209" />
  <sodipodi:namedview
     pagecolor="#ffffff"
     bordercolor="#666666"
     borderopacity="1"
     objecttolerance="10"
     gridtolerance="10"
     guidetolerance="10"
     inkscape:pageopacity="0"
     inkscape:pageshadow="2"
     inkscape:window-width="1920"
     inkscape:window-height="1030"
     id="namedview4207"
     showgrid="false"
     inkscape:zoom="1.0100289"
     inkscape:cx="402.21206"
     inkscape:cy="219.01825"
     inkscape:window-x="0"
     inkscape:window-y="24"
     inkscape:window-maximized="1"
     inkscape:current-layer="svg4205" />
  <g
     id="g4217"
     transform="translate(5.6006857,-14.001714)">
    <path
       style="fill:#bb3d84;stroke-width:1.33333337"
       d="m 1974.5051,486.61391 c -9.6748,-3.08662 -17.6551,-12.31817 -27.3573,-31.64682 -2.2848,-4.55159 -6.0908,-10.48144 -8.458,-13.17746 l -4.3039,-4.90184 -28.0393,0.90863 c -43.9071,1.42281 -50.4943,-0.37256 -84.0395,-22.90539 -39.9175,-26.8132 -56.5757,-43.3696 -66.7236,-66.31582 -7.5805,-17.14093 -9.2023,-44.07888 -3.8531,-63.99917 6.5288,-24.3129 24.618,-47.08883 51.6375,-65.01618 16.1893,-10.74158 28.4805,-17.42294 67.6059,-36.74988 37.1664,-18.35924 60.945,-32.78228 67.9205,-41.19742 5.6672,-6.83683 8.8569,-18.39126 12.0651,-43.703183 4.2842,-33.80431 7.2064,-41.46779 20.3952,-53.48919 14.4744,-13.19314 30.4281,-17.26292 43.091,-10.99249 8.8191,4.36699 18.7116,14.55954 20.757,21.38637 1.5354,5.1246 1.3257,6.49944 -2.7783,18.21821 -35.7625,102.117443 -42.4373,225.424983 -20.0619,370.611463 2.728,17.70132 3.5664,26.48105 2.6859,28.12639 -5.1903,9.69808 -29.1623,18.47478 -40.5432,14.84378 z m -56.8647,-121.34958 4.6667,-1.29684 0.108,-28.36239 c 0.089,-23.41564 0.7348,-32.66457 3.7032,-53.02906 1.9775,-13.56667 3.9707,-31.71667 4.4292,-40.33334 l 0.8336,-15.66666 -4.5368,0.0264 c -7.2163,0.042 -22.312,2.45116 -33.6981,5.3779 -28.8708,7.4211 -51.1164,22.45931 -59.9696,40.54004 -10.271,20.97592 -2.9152,49.21188 18.456,70.84506 15.6846,15.877 31.1482,23.03044 50.0081,23.13368 6.2333,0.0341 13.4333,-0.52155 16,-1.2348 z m -793.3333,89.22209 c -14.0197,-3.65836 -22.4935,-8.14023 -31.1909,-16.49705 -9.4698,-9.09892 -14.1116,-18.62495 -14.1294,-28.99659 l -0.013,-7.58327 7.587,-6.41673 c 4.1728,-3.52921 10.3873,-9.11675 13.8099,-12.41675 l 6.2231,-6 0.7582,-18.64905 c 0.8164,-20.06977 -0.7739,-78.72481 -3.0728,-113.35094 -3.6273,-54.63236 -14.0526,-157.205593 -16.5444,-162.777173 -1.0111,-2.26078 -4.7737,-7.66078 -8.3613,-12 -9.9488,-12.03295 -11.066,-14.04642 -11.066,-19.94417 0,-14.94804 7.8113,-27.03373 21.5823,-33.39204 8.1072,-3.74326 9.0929,-3.87862 26.7248,-3.66984 47.0373,0.55697 79.4171,9.80227 111.8196,31.92746 35.0822,23.95505 68.9994,56.669733 94.3718,91.025963 24.2594,32.8491 35.0182,63.8304 35.0076,100.80876 0,19.3925 -1.3888,30.14409 -6.2489,48.57317 -13.5251,51.28401 -52.4283,103.47408 -101.9239,136.73452 -22.9626,15.43062 -56.8648,30.21128 -77.9115,33.96789 -12.8569,2.2948 -35.9892,1.63912 -47.4218,-1.34416 z m 82.267,-72.00224 c 21.4778,-7.38947 38.0383,-23.01758 57.1242,-53.90814 26.7392,-43.27751 36.3666,-77.89342 29.2562,-105.19208 -12.8274,-49.24783 -57.1509,-100.63042 -100.6474,-116.67673 -7.9688,-2.93979 -23.1952,-6.746573 -27.1111,-6.778153 -2.7153,-0.0219 -2.7715,-9.64196 0.5103,87.313623 3.4555,102.0884 7.8363,176.86828 11.3798,194.25329 0.5292,2.59655 1.7188,3.75259 4.3093,4.18783 5.8175,0.97739 17.2668,-0.47756 25.1787,-3.19964 z m 205.0663,62.89737 c -10.7308,-4.96822 -14.7546,-11.9773 -18.6689,-32.51984 -3.3439,-17.54885 -3.8401,-44.87562 -1.4745,-81.19749 1.1789,-18.10149 2.1434,-42.27514 2.1434,-53.71921 0,-55.74303 10.846,-88.80575 32.5842,-99.329 19.1064,-9.24928 44.2394,-4.74739 58.478,10.47469 3.3348,3.56523 6.7688,8.83676 7.6309,11.71455 1.7795,5.93933 0.7772,8.87272 -7.4388,21.77079 -8.2747,12.9899 -11.1359,25.0174 -12.6471,53.16254 -1.4392,26.8073 -2.414,34.13295 -6.5753,49.41395 -3.6364,13.35403 -3.4523,26.82017 0.7519,54.97952 4.5352,30.37697 3.6405,51.88382 -2.5084,60.29296 -4.724,6.46052 -41.4963,9.9471 -52.2754,4.95654 z m 677.3334,0 c -10.7308,-4.96822 -14.7547,-11.9773 -18.669,-32.51984 -3.3438,-17.54885 -3.8401,-44.87562 -1.4745,-81.19749 1.1789,-18.10149 2.1435,-42.27514 2.1435,-53.71921 0,-55.74303 10.846,-88.80575 32.5841,-99.329 19.1064,-9.24928 44.2395,-4.74739 58.478,10.47469 3.3348,3.56523 6.7688,8.83676 7.6309,11.71455 1.7795,5.93933 0.7772,8.87272 -7.4388,21.77079 -8.2746,12.9899 -11.1358,25.0174 -12.647,53.16254 -1.4392,26.8073 -2.414,34.13295 -6.5754,49.41395 -3.6364,13.35403 -3.4522,26.82017 0.7519,54.97952 4.5352,30.37697 3.6405,51.88382 -2.5084,60.29296 -4.724,6.46052 -41.4963,9.9471 -52.2753,4.95654 z m -472,-52.28024 c -12.4512,-1.78914 -21.7384,-5.89414 -34.2263,-15.12818 -19.6928,-14.56157 -35.9311,-36.17925 -44.6876,-59.49177 -6.1709,-16.42874 -8.5843,-28.62028 -9.3513,-47.23866 -1.567,-38.03528 8.6828,-67.38169 37.8537,-108.38048 7.6776,-10.79073 16.0261,-23.68447 18.5523,-28.65276 6.1484,-12.09265 12.9149,-19.28678 22.3397,-23.75127 20.0345,-9.49034 47.2185,-4.09379 71.3543,14.16522 32.6598,24.70759 59.3918,87.13747 57.0722,133.28596 -1.7809,35.42893 -17.0832,70.15905 -46.4136,105.34075 -17.9822,21.56962 -26.659,27.08221 -47.1601,29.96202 -10.6919,1.50191 -14.2172,1.48648 -25.3333,-0.1108 z m 27.8453,-86.81343 c 7.9471,-2.34803 18.4081,-13.19795 21.6176,-22.42119 3.3523,-9.63336 3.3716,-31.63172 0.039,-43.95732 -4.7582,-17.59543 -22.0423,-46.61005 -28.8222,-48.383 -13.0756,-3.41935 -41.1509,26.68817 -50.6601,54.327 -6.0777,17.66547 -4.7965,32.82873 3.7171,43.99359 10.6716,13.9947 36.168,21.74174 54.109,16.44092 z M 1439.3119,121.96227 c -13.2492,-4.13897 -27.0557,-16.35116 -29.7455,-26.310663 -2.9756,-11.01852 0.5162,-27.82842 8.6712,-41.74399 5.8847,-10.04146 23.6243,-17.0935 42.7346,-16.98826 31.0286,0.17087 46.7678,20.29437 38.0213,48.61241 -5.3468,17.310933 -18.3248,32.583073 -30.8489,36.302353 -8.3994,2.49435 -21.0778,2.5507 -28.8327,0.12815 z m 677.3333,0 c -13.2492,-4.13897 -27.0557,-16.35116 -29.7454,-26.310663 -2.9756,-11.01852 0.5161,-27.82842 8.6712,-41.74399 5.8846,-10.04146 23.6242,-17.0935 42.7345,-16.98826 31.0287,0.17087 46.7679,20.29437 38.0213,48.61241 -5.3468,17.310933 -18.3248,32.583073 -30.8489,36.302353 -8.3993,2.49435 -21.0777,2.5507 -28.8327,0.12815 z"
       id="path4223"
       inkscape:connector-curvature="0"
       sodipodi:nodetypes="ccccsscccsscccccccccccccccsccccccccccccccscscscsccsccccsscssccccccsccccccccccccsscccccscccccccccccsscccccccccccccsccccccsccc" />
    <path
       style="fill:#646e8e;stroke-width:1.33333337"
       d="m 897.33335,412.73295 c -23.71143,-5.0849 -44.67039,-17.57045 -59.42392,-35.39962 -7.50687,-9.0718 -17.0349,-28.25593 -20.1976,-40.66667 -2.16588,-8.49908 -2.37848,-17.31837 -2.37848,-98.66666 0,-101.05038 -0.30004,-97.66234 10.62712,-120 10.21222,-20.876191 24.31066,-34.982054 45.37288,-45.396808 17.01298,-8.412508 26.1499,-10.536042 45.33333,-10.536042 19.18343,0 28.32035,2.123534 45.33333,10.536042 C 983.06223,83.017946 997.16067,97.123809 1007.3729,118 1018.3001,140.33766 1018,136.94962 1018,238 c 0,101.05037 0.3001,97.66233 -10.6271,120 -6.5678,13.42603 -15.11218,24.38871 -26.03955,33.40937 -8.69638,7.17892 -28.12202,17.06312 -39.33334,20.01366 -11.18553,2.94376 -33.93665,3.61098 -44.66666,1.30992 z m 43.03977,-21.27049 c 25.32681,-8.04944 44.49698,-26.85137 54.05462,-53.01633 l 3.57228,-9.77947 V 238 147.33333 l -3.57228,-9.77947 c -9.67736,-26.49268 -27.55223,-43.915659 -54.42773,-53.051749 -10.34681,-3.517311 -36.31985,-3.517311 -46.66666,0 -26.97663,9.170466 -44.71395,26.459379 -54.42772,53.051749 l -3.57228,9.77947 V 238 328.66666 l 3.57228,9.77947 c 5.00842,13.71104 11.09781,23.43376 20.63088,32.94064 8.706,8.68208 24.21958,17.68062 35.13017,20.37702 3.3,0.81554 7.2,1.77223 8.66667,2.12598 5.175,1.24816 30.74824,-0.42772 37.03977,-2.42731 z M 0,237.92932 V 63.85865 l 64.333334,0.48139 c 71.237706,0.533055 67.930326,0.15657 86.706446,9.869906 13.4724,6.9696 28.05088,21.801522 34.5232,35.123384 15.93181,32.79219 10.32124,68.04212 -14.87215,93.43811 -10.80549,10.8924 -19.69783,16.59061 -33.35749,21.3755 -7.76863,2.72131 -11.95092,3.11276 -40.361795,3.7778 l -31.695123,0.74192 50.850118,70.66667 c 27.96756,38.86667 57.68952,80.1393 66.04878,91.71697 l 15.19868,21.05031 -12.21453,-0.38364 -12.21453,-0.38364 -66.43163,-92 -66.431629,-92 -0.04084,-9.66667 L 40.000001,208 h 39.267706 c 24.017643,0 42.011723,-0.58268 46.333333,-1.50035 18.01491,-3.82537 34.88271,-17.48531 43.18858,-34.97511 16.26828,-34.25638 -3.83927,-75.670533 -41.5029,-85.480663 -6.37108,-1.659454 -17.19857,-2.043878 -57.566851,-2.043878 H 20 V 248 411.99999 H 10 0 Z m 210.66667,172.43029 c 0,-0.96646 18.9,-79.06644 42,-173.55551 23.1,-94.48908 42,-172.024612 42,-172.301205 0,-0.276592 6.75,-0.497587 15,-0.491097 l 15,0.01173 41.88787,171.654872 c 23.03833,94.41017 42.15831,172.70486 42.48884,173.9882 0.53227,2.06654 -0.53,2.33333 -9.29063,2.33333 h -9.89161 L 373.97942,347.33326 358.0977,282.6666 h -48.35678 -48.35678 l -0.75062,3 c -0.41285,1.65 -7.52233,30.6 -15.79886,64.33333 l -15.04823,61.33333 -9.55988,0.39175 c -7.21988,0.29592 -9.55988,-0.0383 -9.55988,-1.3654 z M 349.39395,247.66666 C 327.59481,156.18428 309.95035,86.733417 309.04899,88.863707 c -0.90035,2.127901 -42.38232,171.680753 -42.38232,173.232933 0,0.3135 19.41785,0.57002 43.1508,0.57002 h 43.1508 z M 457.33334,238 V 63.849418 l 59.66667,0.472925 c 67.20892,0.532704 66.35152,0.425573 87.66667,10.953955 21.01314,10.379213 35.02661,24.389071 45.40205,45.390362 10.98639,22.23792 10.59795,17.93742 10.59795,117.33334 0,99.40258 0.38841,95.10453 -10.6032,117.33333 -10.39714,21.02658 -24.40902,35.0381 -45.3968,45.39561 -21.32414,10.52349 -20.4638,10.41605 -87.66667,10.94871 l -59.66667,0.47293 z m 121.87199,151.36607 c 15.28965,-3.91044 25.25327,-9.73814 37.58612,-21.98405 8.09629,-8.0392 12.01336,-13.21286 15.68396,-20.71536 8.67084,-17.72266 8.81163,-19.45898 8.81163,-108.66666 0,-89.25948 -0.14074,-90.98942 -8.84014,-108.66564 -6.16,-12.51642 -22.40664,-29.24275 -34.69496,-35.719344 -16.57134,-8.733979 -23.40998,-9.615017 -74.63188,-9.615017 H 477.33334 V 238 391.99999 h 45.78672 c 41.23259,0 46.81106,-0.26198 56.08527,-2.63392 z M 728.00001,238 V 63.999999 h 10 10 V 238 411.99999 h -10 -10 z"
       id="path4221"
       inkscape:connector-curvature="0" />
    <path
       style="fill:#ffffff;stroke-width:1.33333337"
       d="m 902.87167,413.23101 c -11.47535,-1.48839 -27.20292,-6.89458 -37.57884,-12.91734 -11.52155,-6.68773 -28.88095,-24.0324 -35.67731,-35.64701 -7.19256,-12.29169 -11.87097,-26.70273 -13.67532,-42.12442 -0.97465,-8.33038 -1.28847,-39.63131 -0.93445,-93.20891 0.579,-87.63011 0.50408,-86.69353 8.45404,-105.67431 7.72021,-18.43226 24.0206,-37.264413 41.16328,-47.556736 25.06694,-15.04999 57.89996,-18.218501 85.94529,-8.294048 27.17457,9.616316 49.33238,30.92626 59.91634,57.623714 C 1018.0258,144.45388 1018,144.06766 1018,238 c 0,93.93233 0.026,93.54612 -7.5153,112.56805 -7.7434,19.53228 -23.87774,38.58465 -41.77441,49.32966 -10.54429,6.33071 -26.60374,11.75502 -39.64306,13.39002 -12.18815,1.52825 -14.00586,1.52432 -26.19556,-0.0567 z m 33.84821,-20.57588 c 22.60528,-5.72194 42.50577,-21.66795 52.40128,-41.98847 9.801,-20.12642 9.54552,-17.11097 9.54552,-112.66666 0,-95.5557 0.25548,-92.54024 -9.54552,-112.66667 -9.89551,-20.32052 -29.796,-36.266527 -52.40128,-41.98847 -10.19361,-2.580253 -29.91279,-2.580253 -40.1064,0 -22.60528,5.721943 -42.50577,21.66795 -52.40128,41.98847 -9.79981,20.12399 -9.54552,17.12624 -9.54552,112.52828 0,95.80656 -0.15065,94.05197 9.743,113.47172 10.00533,19.63893 29.94979,35.58218 51.59033,41.24042 9.77562,2.55599 30.77783,2.59795 40.71987,0.0813 z M 0,238 V 63.999999 l 58.333334,0.04652 c 42.710916,0.03405 61.011466,0.524987 68.333336,1.833099 30.82223,5.506641 56.63397,29.237238 64.77129,59.548912 3.26576,12.165 3.06576,32.72432 -0.42288,43.47042 -8.59828,26.48537 -28.90557,46.79825 -55.44946,55.46472 -6.99185,2.28281 -12.90336,2.78262 -39.232285,3.31706 -17.05,0.3461 -31.000001,0.86146 -31.000001,1.14527 0,0.2838 29.400001,41.34259 65.333336,91.24176 C 166.6,369.96693 196,411.06498 196,411.39676 196,411.72854 191.00672,412 184.90382,412 H 173.80763 L 107.57048,320.14168 41.333334,228.28336 V 218.14168 208 h 40.547875 c 36.050761,0 41.448041,-0.28016 48.664181,-2.52608 16.43113,-5.11395 31.83087,-18.6947 39.11003,-34.49044 5.31321,-11.52963 6.59634,-28.79123 3.05697,-41.12417 -5.80909,-20.24178 -22.24576,-37.133047 -42.167,-43.333231 -7.37226,-2.294507 -12.8113,-2.52608 -59.330848,-2.52608 H 20 V 248 411.99999 H 10 0 Z m 211.0769,170.99999 c 0.38461,-1.65 19.4832,-79.96839 42.44129,-174.04089 l 41.742,-171.040886 14.54633,0.374226 14.54635,0.374226 41.57602,169.999994 c 22.86681,93.5 42.00554,171.67665 42.5305,173.72589 l 0.95448,3.7259 -9.67604,-0.39256 -9.67604,-0.39256 -15.82936,-64.34963 -15.82936,-64.34962 -48.76811,0.34962 -48.76809,0.34963 -15.07245,61.33333 c -8.28986,33.73333 -15.39632,62.68333 -15.79218,64.33333 -0.66245,2.76132 -1.47176,3 -10.17218,3 -9.12088,0 -9.42795,-0.1052 -8.75316,-3 z M 352.8481,260.33333 C 352.48239,259.05 342.77934,219.3 331.28577,172 319.79218,124.7 310.1904,85.789433 309.94847,85.532076 c -0.24192,-0.257357 -1.05915,1.842643 -1.81604,4.666667 -3.04336,11.354957 -41.46576,169.961457 -41.46576,171.169377 0,0.81592 16.13888,1.29854 43.42319,1.29854 40.71983,0 43.38179,-0.14526 42.75824,-2.33333 z M 457.33334,238 V 63.999999 h 51.70164 c 56.64047,0 68.47682,0.910899 84.21791,6.481224 15.34548,5.430335 24.62501,11.431544 37.39737,24.185442 17.61988,17.594405 26.15175,35.125285 29.29514,60.194305 1.83598,14.64221 1.83598,151.63584 0,166.27805 -3.14339,25.06902 -11.67526,42.59991 -29.29514,60.19431 -12.77236,12.75389 -22.05189,18.7551 -37.39737,24.18544 -15.74109,5.57033 -27.57744,6.48122 -84.21791,6.48122 h -51.70164 z m 121.80755,151.88486 c 28.90267,-7.46213 53.43119,-32.21806 60.14593,-60.70358 2.97696,-12.62896 2.97696,-169.7336 0,-182.36256 -5.13704,-21.79251 -21.48781,-42.76509 -41.40628,-53.110405 -17.96828,-9.332427 -20.82336,-9.708316 -73.73965,-9.708316 H 477.33334 V 238 391.99999 h 46.80755 c 38.40736,0 48.27777,-0.37958 55,-2.11513 z M 728.00001,238 V 63.999999 h 10 10 V 238 411.99999 h -10 -10 z"
       id="path4219"
       inkscape:connector-curvature="0" />
  </g>
</svg>
