<?xml version="1.0" encoding="UTF-8"?>
<!-- Created with Inkscape (http://www.inkscape.org/) -->
<svg width="200.04mm" height="81.291mm" version="1.1" viewBox="0 0 200.03928 81.291489" xmlns="http://www.w3.org/2000/svg" xmlns:cc="http://creativecommons.org/ns#" xmlns:dc="http://purl.org/dc/elements/1.1/" xmlns:rdf="http://www.w3.org/1999/02/22-rdf-syntax-ns#">
 <metadata>
  <rdf:RDF>
   <cc:Work rdf:about="">
    <dc:format>image/svg+xml</dc:format>
    <dc:type rdf:resource="http://purl.org/dc/dcmitype/StillImage"/>
    <dc:title/>
   </cc:Work>
  </rdf:RDF>
 </metadata>
 <g transform="translate(-4.2258 -9.8451)">
  <path transform="scale(.26458)" d="m250.04 341.89c-7.0434-2.1659-11.216-3.0195-13.784-11.868-2.5402-8.7525-3.9166-16.495-4.8529-27.297-0.53989-6.2293-1.125-8.2696-2.7832-9.7056-3.5005-3.0313-24.291-15.907-25.685-15.907-66.758 31.298-183.48-8.6028-186.71-17.799 51.64 2.6743 116.68 8.1809 154.03-19.812l-0.98789-15.945c-8.5868-73.325 47.102-138.03 105.18-164.04 29.062-14.428 57.215-21.137 73.067-17.412 44.346-5.5463 80.173-4.2209 113.5-2.4129 15.382-4.2015 34.062-3.7153 62.032 6.6723 16.992 6.3728 52.937 26.145 80.186 52.622 6.2678 3.8885 31.088 38.992 35.04 36.332 10.142-11.668 16.852-51.69 36.411-47.135 6.2682 3.1584 4.3801 10.432 7.2278 11.398 1.5438 0.34731 4.907-3.8371 8.1441-4.9792 22.279-10.293 5.8353 59.662 1.959 74.396 20.532 28.471 39.808 63.805 55.031 87.619 21.632 33.808 24.969 39.474 24.969 42.391 0 3.4507-10.673 13.636-18.328 17.491-4.6299 2.3316-6.5306 2.7694-9.9476 2.2912-7.3435-1.0278-16.698-4.5783-34.75-13.19-29.824-14.227-43.474-17.931-64.035-19.987l-8.9399-1.9633-16.12 6.2129c-7.5518 2.9106-15.855 6.8971-18.88 7.8414s-6.0625 2.1533-6.75 2.6867c-3.6644 2.8431 0.8322 14.76 8.7142 23.094 5.371 5.679 5.1652 8.2717 2.2273 10.93-4.5236 4.0938-22.848 4.8232-27.931 1.0681-3.6179-2.6726-8.6665-12.808-10.279-20.636-1.7331-8.4125-2.6007-14.091-4.7861-15.26-2.9346-1.5706-11.406-0.22083-11.406-0.22083-4.1547 4.7813-2.6656 17.537 3.3539 26.85 2.1212 3.282 3.9299 7.0274 3.8568 8.3185-0.375 6.625-19.86 7.4455-29 3.7698-5.4244-3.8893-7.0879-9.6252-8.2685-28.511l-1.0868-17.386-15.517-7.1321c-20.97-9.6385-18.973-12.385-26.648-15.458-17.902-7.1675-65.619-7.6141-88.821-5.7936-24.409 1.9152-31.934 4.6062-46.204 16.522-4.9253 4.1127-11.554 8.9611-14.73 10.774-9.8069 5.5983-9.1455 4.5484-7.7983 12.38 1.6427 9.5484 5.2666 16.999 11.202 23.029 4.0764 4.142 4.9687 5.6588 4.7015 7.9926-0.22203 1.9397-1.19 3.2908-2.9637 4.1368-3.8891 1.855-22.034 3.5251-25.205 2.3198-5.4368-2.067-10.514-11.819-14.71-28.25-1.1671-4.5711-2.5888-8.8736-3.1593-9.5611-0.73162-0.88158-4.8328-1.25-13.915-1.25h-12.878l0.022 8.25c0.0243 9.1217 1.2659 12.802 7.3849 21.888 1.9762 2.9346 3.52 3.4892 3.4682 5.5725-10.123 11.923-22.923-3.6346-23.856 4.0672z" fill="#dc9b0a"/>
 </g>
 <g transform="translate(-4.2258 -9.8451)">
  <path d="m65.784 90.879c-1.7861-0.39235-3.2479-1.7502-3.8775-4.536-0.26093-1.1548-1.1525-7.5694-1.1525-8.2921-1.7791-1.1075-5.4829-4.0732-7.4558-4.3391-0.36063 0-2.1625 0.58915-4.0041 1.3092-7.1829 2.3223-17.038 4.3869-30.036 1.0494-4.8598-1.2478-10.045-3.3889-14.964-7.2756-0.1153-0.09112-0.05016-0.15898-0.05016-0.15898 6.96 2.4615 18.917 5.1315 27.277 4.131 11.842-1.4173 10.767-2.4671 9.8885-7.2041 1.1037-0.57838 2.0238-1.118 3.1735-1.8199 0.16235-4.5655-0.58591-9.3314 0.36986-13.846 9.9487 19.766 50.73 15.467 51.755 3.2734 8.4135-0.01914 11.736-0.02315 18.961 0.01017 0.71202-8.8154 2.1594-29.08 5.0257-38.274-0.71591 6.4304-1.8162 20.583-1.2767 27.207 0.44671 14.114 14.579 19.678 27.826 21.165 8.9495 1.348 18.771-0.2558 23.558-3.9603 0.55524 3.3009-0.0445 5.9091-1.1706 9.1885 4.6095 1.1843 9.5048 1.8919 13.815 4.0182 7.0595 3.4056 9.9219 10.177 18.327 9.5864-4.9914 4.7096-8.8737 1.383-14.064-0.88219-7.5024-3.3101-12.021-5.687-20.381-5.7786-1.7297 1.2089-5.3865 3.5907-10.232 4.078 0.18469 2.8242 1.3794 4.953 2.6108 6.2493 2.2874 2.1658 0.649 3.5761-2.6957 3.8794-1.956 0.17737-3.5326 0.07993-4.4612-0.78928-3.1169-3.2209-2.9207-8.7376-3.4856-9.258-1.364-0.20713-1.9664-0.25301-3.33-0.40515-0.60743 6.5192 1.7965 7.6725 1.9004 9.3307 0.25102 2.0506-6.9814 2.7727-8.6546 0.17679-1.8313-2.9816-1.5714-7.4195-1.5725-11.067-13.831-3.4646-13.92-6.5311-19.176-7.418-3.6445-0.60894-3.8021-0.0086-11.593-0.01158-8.962 0.0211-10.364 0.46864-12.899 2.1779-3.0119 1.8699-4.7835 3.5318-7.5688 5.202-1.7061 1.0224-1.6681 1.4451-1.3984 3.4124 0.62065 1.728 1.3252 3.576 3.0164 5.5505 3.6787 3.3603-2.2133 3.7859-3.5041 3.9474-4.1876 0.32187-5.0942-0.55338-6.7141-6.4824-0.57586-2.1077-0.58731-3.071-1.1123-3.5634-2.5003 0.01396-4.2019-0.19452-6.8684-0.52806-0.243 2.7654 0.48758 5.7244 1.7708 7.5663 3.7659 4.1019-2.6533 3.8603-5.5793 3.3792z" fill="#95500b" stroke-width=".29147"/>
 </g>
</svg>
