<?xml version="1.0" encoding="UTF-8" standalone="no"?>
<svg
   xmlns:dc="http://purl.org/dc/elements/1.1/"
   xmlns:cc="http://creativecommons.org/ns#"
   xmlns:rdf="http://www.w3.org/1999/02/22-rdf-syntax-ns#"
   xmlns:svg="http://www.w3.org/2000/svg"
   xmlns="http://www.w3.org/2000/svg"
   xml:space="preserve"
   style="enable-background:new 0 0 60 60;"
   viewBox="0 0 60 60"
   y="0px"
   x="0px"
   id="Capa_1"
   version="1.1"><metadata
     id="metadata4402"><rdf:RDF><cc:Work
         rdf:about=""><dc:format>image/svg+xml</dc:format><dc:type
           rdf:resource="http://purl.org/dc/dcmitype/StillImage" /><dc:title></dc:title></cc:Work></rdf:RDF></metadata><defs
     id="defs4400" /><g
     id="g4362"><path
       id="path4366"
       d="M 30 0 C 13.458 0 0 13.458 0 30 C 0 46.542 13.458 60 30 60 C 46.542 60 60 46.542 60 30 C 60 13.458 46.542 0 30 0 z M 23.054688 14.001953 C 23.233063 14.012078 23.409 14.069828 23.5625 14.173828 L 45.5625 29.173828 C 45.8355 29.359828 46 29.669 46 30 C 46 30.331 45.8355 30.640172 45.5625 30.826172 L 23.5625 45.826172 C 23.3935 45.941172 23.197 46 23 46 C 22.84 46 22.679203 45.962766 22.533203 45.884766 C 22.205203 45.711766 22 45.371 22 45 L 22 15 C 22 14.629 22.20425 14.288234 22.53125 14.115234 C 22.69525 14.028734 22.876312 13.991828 23.054688 14.001953 z "
       style="fill:#d5982d;fill-opacity:1" /></g><g
     id="g4368" /><g
     id="g4370" /><g
     id="g4372" /><g
     id="g4374" /><g
     id="g4376" /><g
     id="g4378" /><g
     id="g4380" /><g
     id="g4382" /><g
     id="g4384" /><g
     id="g4386" /><g
     id="g4388" /><g
     id="g4390" /><g
     id="g4392" /><g
     id="g4394" /><g
     id="g4396" /></svg>