<?xml version="1.0" encoding="UTF-8" standalone="no"?>
<svg
   xmlns:dc="http://purl.org/dc/elements/1.1/"
   xmlns:cc="http://creativecommons.org/ns#"
   xmlns:rdf="http://www.w3.org/1999/02/22-rdf-syntax-ns#"
   xmlns:svg="http://www.w3.org/2000/svg"
   xmlns="http://www.w3.org/2000/svg"
   viewBox="0 0 461.10666 98.626663"
   height="98.626663"
   width="461.10666"
   xml:space="preserve"
   id="svg2"
   version="1.1"><metadata
     id="metadata8"><rdf:RDF><cc:Work
         rdf:about=""><dc:format>image/svg+xml</dc:format><dc:type
           rdf:resource="http://purl.org/dc/dcmitype/StillImage" /></cc:Work></rdf:RDF></metadata><defs
     id="defs6" /><g
     transform="matrix(1.3333333,0,0,-1.3333333,0,98.626667)"
     id="g10"><g
       transform="scale(0.1)"
       id="g12"><path
         id="path14"
         style="fill:#EEE;fill-opacity:1;fill-rule:nonzero;stroke:none"
         d="m 3309.44,163.09 c -24.12,-27.84 -59.01,-44.422 -99.01,-44.801 -0.48,0 -0.9,-0.09 -1.35,-0.09 -70.92,0 -115.25,35.449 -131.05,89.66 h 380.24 v 49.219 c 0,141.801 -103.46,255.07 -254.16,255.07 -141.81,0 -256.05,-114.23 -256.05,-256.07 0,-141.82 106.36,-256.0701875 260.01,-256.0701875 0.8,0 1.57,0.0703125 2.36,0.0703125 79.43,0.601563 142.02,29.929675 186.36,75.652375 z m -104.32,230.871 c 57.14,0 99.46,-26.594 117.2,-77.781 h -238.35 c 20.69,46.258 64.01,77.781 121.15,77.781" /><path
         id="path16"
         style="fill:#EEE;fill-opacity:1;fill-rule:nonzero;stroke:none"
         d="m 2834.36,163.559 c -22.57,-21.942 -53.15,-35.52 -86.72,-35.52 -0.97,0 -1.91,0.141 -2.85,0.16 -69.53,1.508 -123.2,57.918 -123.2,127.879 0,69.969 53.67,126.36 123.2,127.891 0.94,0.008 1.88,0.14 2.85,0.14 36.21,0 68.91,-15.711 91.86,-40.761 l 92.37,92.41 c -45.4,47.148 -109.42,76.39 -185.24,76.39 -0.62,0 -1.21,-0.082 -1.84,-0.082 -140.94,-1.007 -253.24,-114.789 -253.24,-255.988 0,-141.172 112.3,-254.92956 253.24,-255.960812 0.63,-0.0195317 1.22,-0.0976567 1.84,-0.0976567 72.97,0 134.94,27.1796687 180.04,71.2265687 l -92.31,92.3129" /><path
         id="path18"
         style="fill:#EEE;fill-opacity:1;fill-rule:nonzero;stroke:none"
         d="M 183.68,739.52 C 84.25,739.52 2.46094,652.281 0,536.852 V 9.85938 H 135.219 V 381.172 H 310.422 V 502.641 H 135.219 v 32.679 c 0,45.77 29.09,73.758 67.242,73.758 24.68,0 43.57,-14.148 53.348,-29.039 l 82.25,82.262 c -42.598,57.738 -98.59,77.219 -154.379,77.219" /><path
         id="path20"
         style="fill:#EEE;fill-opacity:1;fill-rule:nonzero;stroke:none"
         d="M 707.148,502.641 V 228.02 c 0,-50.61 -40.48,-91.661 -91.128,-91.661 -50.614,0 -91.09,41.051 -91.09,91.661 V 502.641 H 388.008 V 228.039 C 388.008,102.09 490.078,0 616.02,0 741.969,0 844.066,102.09 844.066,228.039 V 502.641 H 707.148" /><path
         id="path22"
         style="fill:#EEE;fill-opacity:1;fill-rule:nonzero;stroke:none"
         d="M 1655.61,502.641 V 228.02 c 0,-50.61 -40.49,-91.661 -91.1,-91.661 -50.62,0 -91.1,41.051 -91.1,91.661 V 502.641 H 1336.46 V 228.039 C 1336.46,102.09 1438.56,0 1564.51,0 c 125.95,0 228.04,102.09 228.04,228.039 v 274.602 h -136.94" /><path
         id="path24"
         style="fill:#EEE;fill-opacity:1;fill-rule:nonzero;stroke:none"
         d="m 1065.13,502.344 v 0.312 h -1.98 V 685.863 H 928.223 V 502.656 502.344 381.184 228.066 c 0,-100.043 64.777,-184.1012 148.957,-208.8707 31.31,-9.19921 78.56,-9.26952 78.56,-9.26952 h 96.61 V 135.977 h -96.13 c -50.61,0 -91.09,41.449 -91.09,92.089 v 153.118 h 90.61 96.61 v 16.492 88.25 16.418 h -187.22" /><path
         id="path26"
         style="fill:#EEE;fill-opacity:1;fill-rule:nonzero;stroke:none"
         d="M 2011.64,502.313 H 1876.67 V 9.90234 h 134.97 V 380.914 h 189.13 v 121.399 h -189.13" /><path
         id="path28"
         style="fill:#EEE;fill-opacity:1;fill-rule:nonzero;stroke:none"
         d="m 2285.62,9.875 h 134.94 V 502.324 H 2285.62 V 9.875" /><path
         id="path30"
         style="fill:#EEE;fill-opacity:1;fill-rule:nonzero;stroke:none"
         d="m 2439.16,653.602 c 0,-47.543 -38.53,-86.082 -86.09,-86.082 -47.56,0 -86.06,38.539 -86.06,86.082 0,47.539 38.5,86.089 86.06,86.089 47.56,0 86.09,-38.55 86.09,-86.089" /></g></g></svg>