<svg height="210mm" viewBox="0 0 210 210" width="210mm" xmlns="http://www.w3.org/2000/svg"><path d="m-299.83069-170.64442h553.78198v420.6272h-553.78198z" fill="#121f40"/><g fill="#182657"><path d="m250.04486 341.88688c-7.04341-2.16592-11.21585-3.01952-13.78379-11.86766-2.54018-8.75246-3.91665-16.49507-4.85288-27.29714-.53989-6.2293-1.12498-8.26958-2.78322-9.70557-3.50053-3.03134-24.29092-15.90706-25.68509-15.90706-66.75819 31.29802-183.480974-8.60282-186.70655-17.79883 51.639831 2.67429 116.68168 8.18088 154.02952-19.81191l-.98789-15.94463c-8.58684-73.32465 47.10198-138.026558 105.18385-164.044632 29.06165-14.42762 57.21498-21.136835 73.06654-17.412471 44.34609-5.546285 80.17341-4.220859 113.5-2.412861 15.38162-4.201455 34.06183-3.715256 62.03163 6.672328 16.99171 6.372788 52.93662 26.144745 80.18646 52.622257 6.26777 3.888539 31.08832 38.991729 35.03959 36.331859 10.14172-11.66809 16.85201-51.689832 36.41141-47.134602 6.26819 3.158406 4.38011 10.432111 7.22779 11.398199 1.54376.347308 4.90704-3.837061 8.14413-4.979172 22.27936-10.292615 5.8353 59.661515 1.95899 74.395635 20.53187 28.47097 39.80781 63.80455 55.03078 87.61883 21.63157 33.80752 24.96922 39.47393 24.96922 42.39093 0 3.45074-10.67258 13.63595-18.32842 17.49143-4.62994 2.33164-6.53059 2.76941-9.94755 2.29116-7.34354-1.02782-16.69788-4.57834-34.74951-13.1895-29.82372-14.22678-43.4738-17.93089-64.03477-19.98663l-8.93987-1.9633-16.11996 6.21289c-7.55178 2.91058-15.85492 6.89708-18.87992 7.84135s-6.0625 2.15329-6.75 2.68671c-3.66437 2.84312.8322 14.75954 8.71418 23.09357 5.37099 5.67903 5.16525 8.27168 2.22734 10.93045-4.52356 4.09376-22.8475 4.82315-27.93075 1.06813-3.61794-2.67258-8.66646-12.80776-10.27915-20.63597-1.73306-8.41248-2.60068-14.09078-4.78613-15.26039-2.93465-1.57058-11.40619-.22083-11.40619-.22083-4.15474 4.78128-2.66559 17.53694 3.35389 26.85025 2.12125 3.28198 3.92989 7.02736 3.85681 8.31848-.375 6.62502-19.86037 7.44548-29 3.7698-5.42445-3.88928-7.08791-9.6252-8.26853-28.51135l-1.08685-17.38611-15.51685-7.13207c-20.96994-9.6385-18.9728-12.3854-26.64792-15.45831-17.90204-7.1675-65.61903-7.61411-88.82079-5.79358-24.40878 1.91524-31.93408 4.60615-46.204 16.52169-4.92529 4.11266-11.55392 8.96114-14.73031 10.77438-9.80688 5.59828-9.14554 4.5484-7.79826 12.37974 1.64268 9.54836 5.26661 16.99871 11.2017 23.02925 4.07645 4.14201 4.96868 5.65881 4.70153 7.99261-.22203 1.93966-1.19002 3.29079-2.96372 4.1368-3.8891 1.85501-22.03442 3.52509-25.20456 2.3198-5.43676-2.06705-10.51435-11.81871-14.70965-28.25032-1.16708-4.57108-2.58878-8.87356-3.15932-9.56106-.73162-.88158-4.83279-1.25-13.91491-1.25h-12.87756l.022 8.25c.0243 9.12168 1.26586 12.80154 7.38487 21.88775 1.97624 2.93455 3.51996 3.48915 3.46817 5.57251-10.12287 11.92269-22.92261-3.6346-23.85553 4.06717z" transform="matrix(.2273882478 0 0 .2273882478 12.61245 61.558331)"/><path d="m65.783534 90.878523c-1.786083-.392353-3.247935-1.750223-3.877468-4.53597-.260926-1.154768-1.152522-7.569363-1.152522-8.292124-1.779135-1.107495-5.482913-4.07318-7.45583-4.339096-.360631 0-2.162476.58915-4.004077 1.309241-7.182872 2.322314-17.037606 4.386889-30.035579 1.049426-4.859835-1.24785-10.0454847-3.388904-14.963799-7.275565-.1153032-.09112-.05016-.158982-.05016-.158982 6.95997 2.461451 18.916841 5.131511 27.276585 4.131023 11.842178-1.417264 10.766993-2.467121 9.888508-7.204071 1.103726-.578384 2.023764-1.117996 3.173463-1.819881.162346-4.56552-.585909-9.331415.369856-13.845592 9.948667 19.765712 50.729923 15.467327 51.755236 3.273361 8.413533-.01914 11.736023-.02315 18.961073.01017.71202-8.815432 2.15939-29.079515 5.02574-38.273689-.71591 6.43037-1.81618 20.582586-1.27666 27.207088.44671 14.113841 14.57931 19.67788 27.82616 21.165302 8.94953 1.348021 18.77064-.255802 23.55822-3.960276.55524 3.300923-.0445 5.909071-1.17055 9.188525 4.60946 1.184296 9.50476 1.891913 13.81547 4.018156 7.05948 3.405647 9.92187 10.177233 18.32726 9.586432-4.99143 4.709649-8.87371 1.38301-14.06365-.882194-7.50243-3.310069-12.02098-5.686963-20.38083-5.778589-1.72973 1.208923-5.38648 3.590655-10.23195 4.078003.18469 2.824206 1.37939 4.952978 2.61083 6.249307 2.28739 2.165796.649 3.576137-2.69571 3.879437-1.95605.177368-3.53257.07993-4.46115-.789285-3.11689-3.220867-2.92074-8.737634-3.4856-9.258003-1.36399-.207134-1.96636-.253008-3.33003-.405154-.60743 6.519191 1.7965 7.672508 1.90039 9.330677.25102 2.05064-6.98143 2.772676-8.65463.176792-1.83129-2.98165-1.57142-7.419524-1.57247-11.066807-13.8312-3.464607-13.92041-6.531081-19.17553-7.417965-3.64452-.60894-3.80214-.0086-11.59343-.01158-8.962046.0211-10.36447.468644-12.898906 2.177919-3.011858 1.869906-4.78351 3.53179-7.568796 5.202026-1.706051 1.022369-1.6681 1.445103-1.398438 3.412437.620651 1.727978 1.325238 3.575996 3.016404 5.550472 3.678704 3.360251-2.213323 3.785936-3.504059 3.947441-4.18764.321868-5.094231-.55338-6.714113-6.48238-.57586-2.10773-.587314-3.071016-1.112309-3.56341-2.500292.01396-4.201863-.194519-6.868365-.528062-.242996 2.765443.487575 5.724429 1.770763 7.566263 3.765874 4.10192-2.65326 3.86027-5.579347 3.379179z" stroke-width=".291473" transform="matrix(.85942016 0 0 .85942016 12.61245 61.558331)"/></g></svg>